<svg width="239" height="71" viewBox="0 0 239 71" fill="none" xmlns="http://www.w3.org/2000/svg">
<g clip-path="url(#clip0)">
<path d="M71.1093 25.2596C70.4388 22.7533 69.1768 20.2078 67.1654 17.2315C65.4301 14.7252 63.4187 12.3363 61.2495 10.2216C59.0804 8.06768 56.7141 6.07044 54.1505 4.34733C51.1532 2.35009 48.5502 1.09691 46.0655 0.431167C44.9613 0.157036 44.0542 0.0395508 43.1865 0.0395508C42.6344 0.0395508 42.0822 0.0787124 41.5695 0.196197C41.1357 0.313682 40.7807 0.431167 40.4652 0.587813C40.4258 0.626975 40.3863 0.626975 40.3469 0.626975C40.2286 0.705298 40.0708 0.783621 39.9525 0.861945L39.6764 1.05775C39.637 1.09691 39.5976 1.13608 39.5187 1.17524C39.4792 1.17524 39.4792 1.2144 39.4398 1.2144C38.8482 1.7235 38.4144 2.35009 38.1383 3.13332C37.9806 3.60326 37.8622 4.0732 37.7834 4.5823C36.2847 3.91655 34.8649 3.40745 33.524 3.09416C32.0253 2.70254 30.7632 2.54589 29.5801 2.54589C28.7913 2.54589 28.042 2.62422 27.332 2.78086C26.7405 2.93751 26.2672 3.09416 25.8334 3.28996C25.7939 3.32913 25.7151 3.32913 25.6756 3.36829C25.4784 3.44661 25.3207 3.5641 25.1235 3.68158L24.8474 3.91655C24.7685 3.95571 24.7291 4.03403 24.6502 4.0732C24.6108 4.11236 24.5713 4.11236 24.5713 4.15152C23.7825 4.81727 23.191 5.67882 22.7966 6.69702C22.5994 7.16696 22.4811 7.67606 22.4022 8.26349C21.85 8.10684 21.3768 7.9502 20.8641 7.83271C19.5231 7.48026 18.3005 7.28445 17.1568 7.20612C16.8019 7.16696 16.4469 7.16696 16.0919 7.16696C15.1454 7.16696 14.2383 7.28445 13.4101 7.48026C13.2918 7.51942 13.2129 7.51942 13.0946 7.55858C12.8974 7.59774 12.7002 7.67606 12.503 7.75439C12.4241 7.79355 12.3058 7.83271 12.1875 7.87187C11.9903 7.9502 11.7931 8.02852 11.5959 8.10684C11.517 8.146 11.4776 8.18517 11.3987 8.22433C11.2015 8.34181 10.9649 8.4593 10.7283 8.61594L10.3339 8.89007C10.255 8.9684 10.1761 9.00756 10.0972 9.08588C10.0578 9.12504 10.0184 9.16421 9.97891 9.20337C9.03238 9.9866 8.32248 11.0831 7.88865 12.2971C7.49426 13.3153 7.29707 14.4902 7.25763 15.7825C7.21819 16.879 7.3365 18.0147 7.5337 19.1504C7.69145 20.1686 7.96753 21.226 8.28304 22.3225C8.08584 22.3617 7.88865 22.4008 7.65202 22.44C7.06043 22.5966 6.58716 22.7533 6.15334 22.9491C6.1139 22.9883 6.03502 22.9883 5.99558 23.0274C5.79838 23.1057 5.64063 23.2232 5.44343 23.3407L5.12792 23.5365C5.04904 23.5757 5.00961 23.654 4.93073 23.6932C4.89129 23.7323 4.85185 23.7323 4.85185 23.7715C4.06307 24.4372 3.47149 25.2988 3.0771 26.317C2.76159 27.1785 2.60383 28.1184 2.56439 29.2149C2.52495 30.1157 2.60383 31.0555 2.76159 31.9563C3.03766 33.5227 3.47149 35.0892 4.18139 36.8906C4.26027 37.1256 4.37858 37.3214 4.45746 37.5564C4.22083 37.5955 4.02363 37.6347 3.82644 37.6739C3.39261 37.7913 3.03766 37.9088 2.72215 38.0655C2.68271 38.1046 2.64327 38.1046 2.60383 38.1046C2.48551 38.183 2.32776 38.2613 2.20944 38.3396L1.93337 38.5354C1.89393 38.5746 1.85449 38.6137 1.77561 38.6529C1.73617 38.6529 1.73617 38.6921 1.69673 38.6921C1.10515 39.2012 0.671322 39.8277 0.39525 40.611C-0.156896 42.0991 -0.0385789 43.6264 0.158616 44.7621C0.355811 45.8978 0.671322 47.0335 1.18403 48.3258C2.09112 50.6363 3.27429 52.5553 4.18139 53.9651C5.08848 55.3357 6.03502 56.6281 7.13931 57.8812C7.96753 58.8603 8.63799 59.5652 9.1507 60.1135L9.26901 60.2309L10.0184 61.0142L10.8466 61.7974L10.9649 61.9149C11.517 62.424 12.2269 63.0897 13.2129 63.873C14.5144 64.9695 15.8159 65.9094 17.1568 66.8101C18.5766 67.75 20.5091 68.9248 22.836 69.7864C24.1769 70.2955 25.3207 70.6088 26.425 70.8046C27.0954 70.9221 27.6476 70.9612 28.1997 70.9612C29.0674 70.9612 29.8561 70.8437 30.6055 70.5696C30.9999 70.413 31.3548 70.2563 31.6309 70.0213L31.6703 69.9822C31.8281 69.8647 31.9858 69.7472 32.1042 69.6297L32.2619 69.4731C32.3014 69.4339 32.3014 69.4339 32.3408 69.3948L32.4986 69.1989C33.0113 68.6507 33.3662 67.9066 33.524 67.1234C33.5634 66.9276 33.6028 66.7318 33.6423 66.4968C33.8395 66.5751 34.0761 66.6926 34.3127 66.7709C36.1269 67.4758 37.7439 67.9458 39.282 68.1807C40.1103 68.3374 40.9385 68.3766 41.7273 68.3766C41.8456 68.3766 41.9245 68.3766 42.0428 68.3766C43.1471 68.3374 44.0936 68.1807 44.9613 67.8675C45.5134 67.6716 45.9472 67.4367 46.3416 67.1625L46.4205 67.1234C46.6177 66.9667 46.8149 66.8493 46.9726 66.6926L47.2093 66.4576C47.2487 66.4185 47.2882 66.4185 47.2882 66.3793L47.5248 66.1443C48.1953 65.4003 48.6685 64.4212 48.9446 63.3247C48.984 63.1289 49.0235 62.9331 49.0629 62.6981C50.1672 63.0114 51.1926 63.2855 52.2575 63.4422C53.2434 63.5988 54.2688 63.7163 55.2943 63.7163C55.4126 63.7163 55.5309 63.7163 55.6492 63.7163C56.9507 63.6772 58.1339 63.4814 59.1593 63.0897C59.8297 62.8548 60.3424 62.5806 60.8552 62.2282L60.9735 62.1499C61.2101 61.9932 61.4467 61.8366 61.6045 61.6408L61.92 61.3666C61.9594 61.3275 61.9989 61.2883 61.9989 61.2883L62.275 60.975C63.0637 60.0743 63.6553 58.8994 63.9708 57.6071C64.2469 56.4714 64.3258 55.2574 64.2469 53.8476C64.168 52.7119 63.9708 51.4979 63.6159 50.1664C63.4976 49.6573 63.3398 49.1874 63.1821 48.6391C63.7736 48.5608 64.2863 48.4041 64.7596 48.2475C65.3118 48.0517 65.7456 47.8167 66.14 47.5426L66.2188 47.5034C66.416 47.3468 66.6132 47.2293 66.771 47.0726L67.0076 46.8377C67.0471 46.7985 67.0865 46.7985 67.0865 46.7593L67.3231 46.5244C67.9936 45.7803 68.4669 44.8013 68.7429 43.7047C69.2557 41.4334 68.8218 39.1228 68.4274 37.5955C68.0725 36.264 67.5992 34.8542 66.9288 33.3661C67.4415 33.2878 67.9542 33.2094 68.4274 33.0136C68.8218 32.857 69.1768 32.7003 69.4528 32.4654L69.4923 32.4262C69.65 32.3087 69.8078 32.1912 69.9261 32.0737L70.0839 31.9171C70.1233 31.8779 70.1233 31.8779 70.1627 31.8388L70.3205 31.643C70.8332 31.0947 71.1882 30.3506 71.3459 29.5674C71.6614 28.4317 71.5825 27.0611 71.1093 25.2596ZM61.0129 60.4659L60.658 60.74C60.5002 60.8967 60.3425 60.975 60.1847 61.0925C60.1453 61.1317 60.0664 61.1708 60.0269 61.21C59.6325 61.445 59.1987 61.6799 58.6466 61.8757C57.7395 62.189 56.7141 62.3457 55.5703 62.3457H55.6098C54.5844 62.3457 53.559 62.2673 52.573 62.0715C51.5081 61.8757 50.4038 61.6016 49.2601 61.21C49.2601 60.0351 49.0629 58.782 48.708 57.333C48.2347 55.5315 47.5248 53.6518 46.4599 51.5762C45.5134 49.7356 44.4486 47.895 43.2259 46.1719C40.8202 42.6865 38.0594 39.397 34.9832 36.3424C31.9464 33.2878 28.5941 30.5464 25.084 28.1576C23.3093 26.9827 21.4951 25.8862 19.6415 24.9463C17.5118 23.889 15.6187 23.1449 13.8045 22.675C12.3452 22.3225 11.0438 22.1267 9.90004 22.1267C9.50565 20.9518 9.22957 19.8945 9.03238 18.8371C8.83518 17.8189 8.75631 16.8007 8.75631 15.7825C8.75631 14.6468 8.91406 13.6286 9.22957 12.7279C9.58452 11.7097 10.1761 10.8482 10.886 10.1824C10.9254 10.1432 10.9649 10.1041 11.0043 10.0649C11.0832 9.9866 11.1226 9.94744 11.2015 9.90828L11.517 9.67331C11.6353 9.55582 11.8325 9.4775 11.9903 9.39917C12.0692 9.36001 12.1086 9.32085 12.1875 9.28169C12.3058 9.20337 12.4636 9.12504 12.6213 9.08588C12.7002 9.04672 12.8185 9.00756 12.8974 8.9684C13.0552 8.89007 13.2129 8.85091 13.3707 8.81175C13.4495 8.77259 13.5679 8.77259 13.6467 8.73343C14.4355 8.53762 15.3426 8.42013 16.2891 8.42013C17.5512 8.42013 18.971 8.61594 20.5485 8.9684C21.1007 9.08588 21.6528 9.24253 22.2444 9.43834C22.2444 9.4775 22.2444 9.55582 22.2444 9.59498C22.205 10.4957 22.2839 11.4356 22.4416 12.3363C22.7177 13.9028 23.1515 15.4692 23.8614 17.2707C25.1235 20.4819 26.7799 23.1449 28.0814 25.103C29.3434 26.9827 30.6844 28.7842 32.183 30.5464C33.3268 31.8779 34.2733 32.8961 34.9832 33.6402L35.141 33.7969L36.2058 34.8934L37.3495 35.9899L37.5467 36.1466C38.2961 36.8515 39.3215 37.7913 40.6624 38.8879C42.4372 40.376 44.2514 41.7075 46.1444 42.9998C48.1164 44.2922 50.7982 45.8978 54.0322 47.1901C55.8464 47.895 57.4634 48.365 59.0015 48.5999C59.8297 48.7566 60.658 48.7958 61.4467 48.7958C61.5651 48.7958 61.6439 48.7958 61.7623 48.7958C61.8017 48.7958 61.8806 48.7958 61.92 48.7958C62.1172 49.3832 62.2355 49.9314 62.3933 50.4797C63.0243 53.221 63.1032 55.4924 62.6299 57.333C62.3538 58.4295 61.8411 59.3694 61.1707 60.1135L61.0129 60.4659ZM27.4504 61.21C25.5573 59.9176 23.7825 58.5862 22.1655 57.1763C20.8641 56.0798 19.8781 55.1791 19.1682 54.4742L18.971 54.3175L18.616 53.9651C18.1428 53.4951 17.9061 53.2602 17.9061 53.2602C17.9061 53.2602 17.6695 53.0252 17.2751 52.5944L16.8413 52.1636L16.6441 51.9678C15.9736 51.2629 15.0271 50.2839 13.9622 48.9916C12.5819 47.3468 11.2015 45.5845 9.90004 43.7439C8.71687 42.0208 7.77033 40.4152 6.94211 38.8095C7.29707 38.8487 7.69145 38.927 8.04641 39.0054C9.26901 39.2795 10.5705 39.7494 12.0692 40.4152C13.3312 41.0026 14.5933 41.7467 15.8948 42.5691C18.2217 44.0964 20.588 46.0153 22.8754 48.2475C25.1629 50.558 27.0954 52.8686 28.6335 55.1791C29.5012 56.4714 30.2111 57.7638 30.8027 58.9778C31.4731 60.4267 31.9464 61.7191 32.2225 62.9723C32.3014 63.3639 32.3802 63.7163 32.4197 64.0688C30.8027 63.3247 29.1857 62.3848 27.4504 61.21ZM5.00961 38.7704C6.15334 41.2767 7.49426 43.3523 8.40136 44.7621C9.6634 46.6419 11.0043 48.4433 12.503 50.2056C13.6467 51.5371 14.5933 52.5553 15.3032 53.2993L15.4609 53.456L16.5258 54.5525L17.6695 55.649L17.8667 55.8057C18.616 56.5106 19.6415 57.4505 20.9824 58.547C22.7571 60.0351 24.5713 61.3666 26.4644 62.659C27.8448 63.5597 29.9745 64.8912 32.4986 66.0269C32.4591 66.3402 32.4197 66.6143 32.3408 66.8884C32.183 67.4758 31.907 67.9849 31.552 68.3766L31.4337 68.494L31.2365 68.6507C31.1576 68.729 31.0787 68.7682 30.9999 68.8465C30.9604 68.8465 30.921 68.8857 30.921 68.8857C30.7238 69.0031 30.4477 69.1206 30.1717 69.2381C29.6589 69.3948 29.1068 69.4731 28.4758 69.4731C27.9631 69.4731 27.3715 69.4339 26.7405 69.2773C25.7545 69.0815 24.6896 68.729 23.5065 68.2591C21.7712 67.515 20.0753 66.5751 18.1822 65.3219C16.8413 64.4212 15.5792 63.4422 14.4355 62.4632C13.5284 61.6799 12.8185 61.0142 12.3058 60.5442L12.1875 60.4267L11.6353 59.8785C11.4776 59.7218 11.3987 59.6827 11.3987 59.6827C11.3593 59.6435 11.1226 59.4085 10.6494 58.8994L10.5311 58.7428C10.0578 58.2337 9.38733 57.5288 8.59855 56.6281C7.61258 55.4924 6.6266 54.2392 5.71951 52.9077C4.45746 51.028 3.51093 49.344 2.76159 47.6209C2.24888 46.4461 1.93337 45.3887 1.73617 44.4097C1.4601 43.039 1.49954 41.9425 1.81505 41.0026C2.01225 40.4543 2.28832 39.9844 2.68271 39.6319C2.72215 39.5928 2.72215 39.5928 2.76159 39.5536C2.80103 39.5145 2.84046 39.4753 2.8799 39.4753L3.03766 39.3578C3.11654 39.3186 3.19541 39.2403 3.27429 39.2012C3.31373 39.2012 3.35317 39.162 3.39261 39.162C3.62924 39.0445 3.86588 38.927 4.22083 38.8487C4.41802 38.8487 4.69409 38.8095 5.00961 38.7704ZM8.32248 37.9088C7.57314 37.713 6.90268 37.5955 6.31109 37.5564C6.07446 37.0864 5.9167 36.6948 5.75895 36.3032C5.04905 34.6192 4.57578 33.1311 4.2997 31.7213C4.14195 30.8989 4.06307 30.0765 4.06307 29.2541C4.06307 28.3534 4.18139 27.531 4.45746 26.8261C4.73353 26.0429 5.2068 25.3379 5.75895 24.7897C5.79839 24.7505 5.83782 24.7505 5.83782 24.7114C5.87726 24.6722 5.95614 24.5939 5.99558 24.5939L6.23221 24.4372C6.35053 24.3589 6.46885 24.2806 6.6266 24.2023C6.66604 24.1631 6.74492 24.1631 6.78436 24.1239C7.13931 23.9673 7.49426 23.8106 8.00697 23.654C8.20416 23.6148 8.44079 23.5365 8.71687 23.4974C8.91406 24.0456 9.11126 24.5939 9.30845 25.1421C10.886 29.0975 12.8974 32.3479 14.475 34.7367C16.0525 37.0473 17.6695 39.2403 19.5231 41.4334C20.9035 43.0782 22.0867 44.3313 22.9543 45.232L23.1515 45.467L24.4924 46.7985L25.8728 48.13L26.1094 48.3258C27.0165 49.1874 28.2786 50.3231 29.8956 51.6937C32.0647 53.5343 34.2733 55.1791 36.6396 56.7064C39.0454 58.2729 42.3188 60.2701 46.3022 61.8366C46.8543 62.0324 47.4065 62.2673 47.9586 62.424C47.9192 62.6981 47.8797 62.8939 47.8009 63.1289C47.5642 63.9905 47.1698 64.7737 46.6177 65.3611L46.4205 65.5569L46.1444 65.7919C46.0261 65.9094 45.9078 65.9877 45.7895 66.066C45.75 66.1052 45.7106 66.1052 45.6712 66.1443C45.3951 66.3401 45.0007 66.4968 44.5669 66.6534C43.857 66.8884 43.0287 67.0059 42.1217 67.0451C41.2934 67.0451 40.4652 66.9667 39.637 66.8101C38.2172 66.536 36.6791 66.066 35.0226 65.3611C34.6283 65.2045 34.2339 65.0087 33.7606 64.8128C33.7212 64.1863 33.5634 63.5205 33.4056 62.7764C32.7352 60.2701 31.4731 57.7246 29.4618 54.7483C27.7264 52.242 25.7151 49.8531 23.5459 47.7384C21.3768 45.5845 19.0104 43.5873 16.4469 41.8641C13.3707 39.8277 10.8071 38.5746 8.32248 37.9088ZM31.0393 50.2839C29.4223 48.9524 28.2391 47.8167 27.332 46.9552L27.0954 46.7593L26.2278 45.8978C25.9122 45.5845 25.7545 45.4279 25.7545 45.4279C25.7545 45.4279 25.5179 45.1929 25.1629 44.8013L24.453 44.0964L24.2164 43.8614C23.3882 42.9998 22.2444 41.7858 20.9035 40.2194C19.1682 38.183 17.5118 36.0291 15.9342 33.7185C13.6862 30.429 12.0692 27.4918 10.8071 24.5156C10.6494 24.1239 10.4916 23.7323 10.3733 23.3799C11.3593 23.3799 12.3847 23.5365 13.5679 23.8106C15.3032 24.2023 17.1568 24.868 19.2076 25.8471C20.9824 26.7086 22.7966 27.7268 24.6108 28.9017C27.9236 31.0555 31.1971 33.7577 34.4311 36.8906C37.6256 40.0627 40.3075 43.3523 42.516 46.6419C43.6992 48.4433 44.7246 50.2447 45.5923 52.007C46.5783 54.0434 47.2093 55.884 47.6431 57.6071C47.9192 58.782 48.0375 59.8002 48.0769 60.7792C47.722 60.6226 47.3276 60.5051 46.9332 60.3484C43.9358 59.0953 40.9779 57.4896 37.6651 55.2574C35.2593 53.6518 33.0507 51.9678 31.0393 50.2839ZM46.2233 25.103C50.1278 28.98 53.4406 33.0136 56.1619 37.0864C57.6212 39.2795 58.8832 41.5117 59.9481 43.6656C60.5791 44.9579 61.0918 46.2111 61.5256 47.4251C60.7763 47.4251 60.0664 47.3468 59.3565 47.1901C57.9367 46.916 56.3986 46.4461 54.7421 45.7411C52.2969 44.7229 49.8911 43.3914 47.2093 41.59C45.3162 40.2977 43.5415 38.9662 41.9245 37.5564C40.623 36.4598 39.637 35.5591 38.9271 34.8542L38.7299 34.6976L37.9806 33.9927C37.7439 33.7577 37.6256 33.6402 37.6256 33.6402L36.5608 32.5437L36.3636 32.3479C35.6931 31.643 34.7466 30.6639 33.6817 29.3716C32.3014 27.7268 30.921 25.9645 29.6195 24.1239C27.8053 21.461 26.5038 19.1113 25.439 16.6441C24.7291 14.9601 24.2558 13.472 23.9797 12.0622C23.822 11.3573 23.7431 10.6132 23.7431 9.90828C24.9657 10.3391 26.1883 10.8482 27.5292 11.4747C29.7378 12.5321 31.9464 13.8244 34.1944 15.2734C38.2566 17.9364 42.3188 21.2651 46.2233 25.103ZM62.7088 47.3468C62.2355 46.0153 61.6439 44.6838 60.8946 43.1956C59.7509 40.9243 58.4494 38.6921 56.9507 36.5382C54.0322 32.2696 50.6405 28.2359 46.8543 24.4764C43.0682 20.756 39.006 17.3881 34.7071 14.4902C32.538 13.0412 30.29 11.7097 28.0025 10.574C26.5433 9.86911 25.1629 9.24253 23.822 8.77259C23.8614 8.18516 23.9797 7.67606 24.1375 7.20612C24.4136 6.42289 24.8868 5.71798 25.439 5.16972C25.4784 5.13056 25.5179 5.13056 25.5179 5.0914C25.5573 5.05224 25.6362 4.97391 25.6756 4.97391L25.9122 4.81727C26.0306 4.73894 26.1489 4.66062 26.3066 4.5823C26.3461 4.54314 26.425 4.54314 26.4644 4.50397C26.8193 4.34733 27.1743 4.19068 27.687 4.03403C28.3575 3.87739 29.0674 3.79906 29.8167 3.79906C30.8421 3.79906 31.9464 3.95571 33.2479 4.22984C34.6283 4.54314 36.1269 5.05224 37.7439 5.75715C37.7439 6.22708 37.7834 6.73619 37.9017 7.28445C38.0989 8.42013 38.4144 9.55582 38.9271 10.8482C39.8342 13.1587 41.0174 15.0776 41.9245 16.4874C42.8316 17.8581 43.7781 19.1504 44.8824 20.4036C45.7106 21.3826 46.3811 22.0875 46.8938 22.6358L47.0121 22.7533L47.8009 23.5365L48.6291 24.3197L48.7474 24.4372C49.2995 24.9463 50.0094 25.6121 50.9954 26.4345C52.2969 27.531 53.5984 28.4709 54.9393 29.3716C56.3591 30.3115 58.2916 31.4863 60.6185 32.3479C61.9594 32.857 63.1032 33.1703 64.2075 33.3661C64.7596 33.4444 65.2723 33.4836 65.7456 33.5227C66.4555 35.1284 66.9288 36.5773 67.2837 37.9871C67.7964 40.2194 67.8359 42.0208 67.4809 43.5089C67.2443 44.3705 66.8499 45.1537 66.2977 45.7411L66.1005 45.937L65.8245 46.1719C65.7061 46.2894 65.5878 46.3677 65.4695 46.4461C65.4301 46.4852 65.3906 46.4852 65.3512 46.5244C65.0751 46.7202 64.6807 46.8768 64.2469 47.0335C63.8131 47.1901 63.2609 47.3076 62.7088 47.3468ZM44.3302 9.28169C47.6431 11.4356 50.9165 14.1377 54.1505 17.2707C57.3451 20.4427 60.0269 23.7323 62.1961 27.0219C63.3004 28.6667 64.2469 30.3115 65.0751 31.9563C64.8779 31.9171 64.7202 31.9171 64.523 31.8779C63.537 31.6821 62.4721 31.3297 61.289 30.8597C59.5537 30.1157 57.8578 29.1758 55.9647 27.9226C54.6238 26.9827 53.3618 26.0429 52.218 25.0638C51.3109 24.2806 50.601 23.6148 50.0883 23.1449L49.97 23.0274L49.2207 22.2833L48.4713 21.5001L48.353 21.3435C47.8797 20.8344 47.2093 20.1295 46.4205 19.2287C45.4345 18.0931 44.4486 16.8399 43.5415 15.5084C42.2794 13.6286 41.3329 11.9447 40.5835 10.2216C40.0708 9.04672 39.7553 7.98936 39.5581 7.01032C39.5187 6.81451 39.4792 6.65786 39.4792 6.46205C40.9779 7.24529 42.6738 8.18517 44.3302 9.28169ZM66.2583 32.0346C66.2189 31.9954 66.2189 31.9563 66.1794 31.9171C65.2329 30.0765 64.168 28.2359 62.9454 26.5128C60.5396 23.0274 57.7789 19.7378 54.7027 16.6832C51.6659 13.6286 48.3136 10.8873 44.8035 8.49846C43.0287 7.32361 41.2146 6.22708 39.3609 5.28721C39.3215 5.28721 39.282 5.24804 39.2426 5.24804C39.2426 4.62146 39.3215 4.0732 39.4792 3.60326C39.6764 3.05499 39.9525 2.58506 40.3469 2.2326C40.3863 2.19344 40.3863 2.19344 40.4258 2.15428C40.4652 2.11512 40.5047 2.07595 40.5441 2.07595L40.7018 1.95847C40.7807 1.91931 40.8596 1.84098 40.9385 1.80182C40.9779 1.80182 41.0174 1.76266 41.0568 1.76266C41.2934 1.64518 41.5301 1.52769 41.885 1.44937C42.3583 1.33188 42.871 1.25356 43.4231 1.25356C44.133 1.25356 44.9218 1.33188 45.7895 1.52769C47.0121 1.80182 48.3136 2.27176 49.8122 2.93751C51.0743 3.52493 52.3363 4.269 53.6378 5.0914C55.9647 6.6187 58.3311 8.53762 60.6185 10.7698C62.906 13.0804 64.8385 15.3909 66.3766 17.7014C67.2443 18.9938 67.9542 20.2861 68.5458 21.5001C69.2162 22.9491 69.6895 24.2414 69.9655 25.4946C70.3205 27.0611 70.3599 28.3142 70.0839 29.3716C69.9261 29.959 69.65 30.4681 69.2951 30.8597L69.1768 30.9772L68.9796 31.1339C68.9007 31.2122 68.8218 31.2514 68.7429 31.3297C68.7035 31.3297 68.6641 31.3688 68.6641 31.3688C68.4669 31.4863 68.1908 31.6038 67.9147 31.7213C67.402 31.9563 66.8893 32.0346 66.2583 32.0346Z" fill="url(#paint0_linear)"/>
<path d="M105.618 24.2803V49.9311H102.936V38.1043H86.7662V49.9311H84.0449V24.2803H86.7662V35.7155H102.936V24.2803H105.618Z" fill="white"/>
<path d="M116.622 47.3073C114.769 45.3884 113.822 42.6079 113.822 38.9659V24.2803H116.544V38.8876C116.544 41.8638 117.214 44.0961 118.555 45.545C119.896 46.994 121.868 47.7381 124.431 47.7381C127.034 47.7381 128.967 46.994 130.347 45.545C131.688 44.0961 132.359 41.8638 132.359 38.8876V24.2803H135.001V38.9659C135.001 42.6079 134.054 45.3884 132.201 47.3073C130.347 49.2262 127.744 50.1661 124.392 50.1661C121.118 50.1661 118.515 49.2262 116.622 47.3073Z" fill="white"/>
<path d="M163.515 38.8876C164.422 39.9841 164.895 41.3939 164.895 43.0778C164.895 45.2709 164.067 46.9548 162.45 48.1689C160.794 49.3437 158.388 49.9311 155.193 49.9311H143.322V24.2803H154.483C157.363 24.2803 159.611 24.8677 161.188 26.0034C162.766 27.1391 163.554 28.7839 163.554 30.8986C163.554 32.3084 163.199 33.5224 162.49 34.5015C161.78 35.4805 160.833 36.2246 159.611 36.7337C161.267 37.0861 162.568 37.8302 163.515 38.8876ZM146.004 26.5516V35.8721H154.247C156.337 35.8721 157.954 35.4805 159.098 34.6973C160.242 33.914 160.794 32.7392 160.794 31.251C160.794 29.7237 160.242 28.5881 159.098 27.8048C157.954 27.0216 156.337 26.63 154.247 26.63H146.004V26.5516ZM160.399 46.5632C161.582 45.78 162.174 44.566 162.174 42.882C162.174 39.6708 159.847 38.0652 155.154 38.0652H146.044V47.6989H155.154C157.441 47.7381 159.216 47.3465 160.399 46.5632Z" fill="white"/>
<path d="M191.359 38.8876C192.266 39.9841 192.739 41.3939 192.739 43.0778C192.739 45.2709 191.911 46.9548 190.294 48.1689C188.637 49.3437 186.232 49.9311 183.037 49.9311H171.166V24.2803H182.327C185.206 24.2803 187.454 24.8677 189.032 26.0034C190.609 27.1391 191.398 28.7839 191.398 30.8986C191.398 32.3084 191.043 33.5224 190.333 34.5015C189.623 35.4805 188.677 36.2246 187.454 36.7337C189.111 37.0861 190.412 37.8302 191.359 38.8876ZM173.848 26.5516V35.8721H182.091C184.181 35.8721 185.798 35.4805 186.942 34.6973C188.085 33.914 188.637 32.7392 188.637 31.251C188.637 29.7237 188.085 28.5881 186.942 27.8048C185.798 27.0216 184.181 26.63 182.091 26.63H173.848V26.5516ZM188.204 46.5632C189.387 45.78 189.978 44.566 189.978 42.882C189.978 39.6708 187.651 38.0652 182.958 38.0652H173.848V47.6989H182.998C185.285 47.7381 187.06 47.3465 188.204 46.5632Z" fill="white"/>
<path d="M198.971 24.2803H201.692V47.5814H216.166V49.9311H198.971V24.2803Z" fill="white"/>
<path d="M239 47.6206V49.9703H220.74V24.2803H238.448V26.63H223.462V35.7546H236.831V38.0652H223.462V47.5814H239V47.6206Z" fill="white"/>
</g>
<defs>
<linearGradient id="paint0_linear" x1="45.7827" y1="0.510154" x2="26.1533" y2="70.1117" gradientUnits="userSpaceOnUse">
<stop stop-color="#E61F73"/>
<stop offset="1" stop-color="#00A09B"/>
</linearGradient>
<clipPath id="clip0">
<rect width="239" height="71" fill="white"/>
</clipPath>
</defs>
</svg>
